<svg xmlns="http://www.w3.org/2000/svg" xmlns:xlink="http://www.w3.org/1999/xlink" viewBox="0 0 289.43 46.9"><defs><style>.cls-1{fill:#20f220;}.cls-2{fill:#3154ff;}.cls-3{fill:url(#linear-gradient);}.cls-4{fill:url(#linear-gradient-2);}.cls-5{fill:url(#linear-gradient-3);}.cls-6{fill:#00ff67;}</style><linearGradient id="linear-gradient" x1="175.78" y1="6.33" x2="172.65" y2="10.06" gradientTransform="matrix(-1, 0, 0, 1, 215.43, 0)" gradientUnits="userSpaceOnUse"><stop offset="0" stop-opacity="0.4"/><stop offset="1" stop-color="#424242" stop-opacity="0"/></linearGradient><linearGradient id="linear-gradient-2" x1="65.25" y1="6.33" x2="62.12" y2="10.06" gradientTransform="translate(-56.85)" xlink:href="#linear-gradient"/><linearGradient id="linear-gradient-3" x1="24.43" y1="36.85" x2="27.52" y2="31.51" gradientTransform="matrix(1, 0, 0, 1, 0, 0)" xlink:href="#linear-gradient"/></defs><title>Asset 1</title><g id="Layer_2" data-name="Layer 2"><g id="Layer_1-2" data-name="Layer 1"><path class="cls-1" d="M47.46,35.06c-.22-4.19-.47-8.39-.74-12.55s-.58-8.19-.93-12.06S45.07,3.12,44.66,0L37.24,15.77Q37.87,24,38.17,32c.07,1.58.12,3.13.18,4.66.2,5.71,4.48,10.22,9.69,10.22Q47.82,41.35,47.46,35.06Z"/><path class="cls-2" d="M44.66,0,37.24,15.77c-.73,1.89-1.57,4-2.48,6.29S33,26.67,32.07,29s-1.74,4.49-2.56,6.59S28,39.46,27.4,41H20.68l-2.11-5.39c-.83-2.1-1.69-4.29-2.57-6.59s-1.78-4.61-2.69-6.91-1.74-4.4-2.48-6.29L3.42,0H7.18a8.82,8.82,0,0,1,8,5.45l0,.06c1,2.19,2,4.57,3,7.12s2.1,5.16,3.13,7.81,2,5.16,2.91,7.51q1.37-3.52,2.92-7.51c1-2.65,2.07-5.26,3.12-7.81s2.07-4.93,3-7.12l0-.06a8.88,8.88,0,0,1,8-5.45Z"/><path class="cls-3" d="M37.24,15.77h9c-.14-1.81-.29-3.58-.45-5.32Q45.28,4.68,44.66,0Z"/><path class="cls-1" d="M0,46.9c5.22,0,9.49-4.51,9.69-10.22.06-1.53.12-3.08.19-4.66q.3-8.07.92-16.25L3.39,0C3,3.12,2.59,6.6,2.25,10.45s-.66,7.88-.93,12.06S.81,30.87.58,35.06.16,43.2,0,46.9Z"/><path class="cls-4" d="M10.8,15.77h-9c.14-1.81.3-3.58.45-5.32C2.59,6.6,3,3.12,3.39,0Z"/><polygon class="cls-5" points="24.25 27.95 27.39 40.95 33.49 25.32 24.25 27.95"/><path class="cls-6" d="M83.14,11.76,75.38,31.17H72.87L65.08,11.76h2.73L74.19,27.7l6.42-15.94Z"/><path class="cls-6" d="M85.37,11.93A1.68,1.68,0,0,1,87,10.18a1.65,1.65,0,0,1,1.65,1.69A1.68,1.68,0,0,1,87,13.65,1.65,1.65,0,0,1,85.37,11.93Zm.43,4.55h2.43V31.17H85.8Z"/><path class="cls-6" d="M91.9,29.62l1-2.11A8.07,8.07,0,0,0,97.61,29c2.26,0,3.19-.75,3.19-2,0-3.3-8.47-.44-8.47-6.29,0-2.64,2.15-4.41,5.59-4.41a9.1,9.1,0,0,1,4.88,1.33l-1,2.1a6.59,6.59,0,0,0-3.87-1.16c-2.12,0-3.16.86-3.16,2,0,3.47,8.5.64,8.5,6.35,0,2.67-2.23,4.36-5.79,4.36A9.06,9.06,0,0,1,91.9,29.62Z"/><path class="cls-6" d="M106.57,11.93a1.68,1.68,0,0,1,1.64-1.75,1.65,1.65,0,0,1,1.65,1.69,1.67,1.67,0,0,1-1.65,1.78A1.65,1.65,0,0,1,106.57,11.93Zm.43,4.55h2.43V31.17H107Z"/><path class="cls-6" d="M122.33,30.31a4.33,4.33,0,0,1-2.93,1c-2.71,0-4.25-1.64-4.25-4.61V18.67h-2.28V16.48h2.28V13.26h2.42v3.22h3.85v2.19h-3.85v8c0,1.58.76,2.47,2.1,2.47a2.9,2.9,0,0,0,1.9-.69Z"/><path class="cls-6" d="M148.26,22.71v8.46h-2.43V23c0-2.88-1.26-4.3-3.46-4.3-2.43,0-4,1.69-4,4.88v7.57h-2.42V23c0-2.88-1.27-4.3-3.47-4.3-2.43,0-4,1.69-4,4.88v7.57H126V16.48h2.33v2.19A5.25,5.25,0,0,1,133,16.34a4.86,4.86,0,0,1,4.65,2.71,5.87,5.87,0,0,1,5.16-2.71C146,16.34,148.26,18.39,148.26,22.71Z"/><path class="cls-6" d="M164.1,22.3v8.87h-2.3V29.23a4.83,4.83,0,0,1-4.41,2.11c-3,0-4.95-1.78-4.95-4.33,0-2.36,1.39-4.3,5.38-4.3h3.85v-.52c0-2.25-1.19-3.55-3.59-3.55a6.39,6.39,0,0,0-4.25,1.58l-1-2a8.38,8.38,0,0,1,5.54-1.88C162,16.34,164.1,18.28,164.1,22.3Zm-2.43,4.38V24.63h-3.74c-2.41,0-3.09,1-3.09,2.27,0,1.47,1.11,2.38,3,2.38A3.88,3.88,0,0,0,161.67,26.68Z"/><path class="cls-6" d="M169.33,10.6h2.43V31.17h-2.43Z"/><path class="cls-6" d="M187.75,22.3v8.87h-2.3V29.23a4.82,4.82,0,0,1-4.4,2.11c-3,0-5-1.78-5-4.33,0-2.36,1.39-4.3,5.39-4.3h3.84v-.52c0-2.25-1.18-3.55-3.59-3.55a6.43,6.43,0,0,0-4.25,1.58l-1-2A8.4,8.4,0,0,1,182,16.34C185.68,16.34,187.75,18.28,187.75,22.3Zm-2.43,4.38V24.63h-3.74c-2.4,0-3.09,1-3.09,2.27,0,1.47,1.12,2.38,3,2.38A3.86,3.86,0,0,0,185.32,26.68Z"/><path class="cls-6" d="M205.71,22.71v8.46h-2.42V23c0-2.88-1.32-4.3-3.62-4.3-2.58,0-4.25,1.69-4.25,4.88v7.57H193V16.48h2.33v2.21a5.55,5.55,0,0,1,4.83-2.35C203.41,16.34,205.71,18.39,205.71,22.71Z"/><path class="cls-6" d="M223.85,16.48V29.17c0,5.19-2.4,7.54-6.95,7.54a9.29,9.29,0,0,1-6.4-2.19l1.16-2.05a7.72,7.72,0,0,0,5.16,1.92c3.16,0,4.61-1.61,4.61-4.94V28.29a5.93,5.93,0,0,1-4.84,2.27c-3.87,0-6.8-2.88-6.8-7.13s2.93-7.09,6.8-7.09a5.9,5.9,0,0,1,5,2.41V16.48Zm-2.37,7a4.62,4.62,0,1,0-9.24,0,4.62,4.62,0,1,0,9.24,0Z"/><path class="cls-6" d="M228.08,29.42a1.77,1.77,0,0,1,1.72-1.88,1.75,1.75,0,0,1,1.67,1.88,1.79,1.79,0,0,1-1.67,1.92A1.8,1.8,0,0,1,228.08,29.42Z"/><path class="cls-6" d="M234.15,23.82c0-4.38,3-7.48,7.08-7.48a5.86,5.86,0,0,1,5.47,3.13l-1.85,1.3a4.08,4.08,0,0,0-3.64-2.1c-2.63,0-4.61,2-4.61,5.15s2,5.19,4.61,5.19a4.09,4.09,0,0,0,3.64-2.11l1.85,1.28a5.89,5.89,0,0,1-5.47,3.16C237.11,31.34,234.15,28.2,234.15,23.82Z"/><path class="cls-6" d="M249.13,23.82c0-4.38,3-7.48,7-7.48s7,3.1,7,7.48-2.94,7.52-7,7.52S249.13,28.2,249.13,23.82Zm11.48,0c0-3.13-1.92-5.15-4.5-5.15s-4.53,2-4.53,5.15S253.53,29,256.11,29,260.61,27,260.61,23.82Z"/><path class="cls-6" d="M289.43,22.71v8.46H287V23c0-2.88-1.26-4.3-3.47-4.3-2.42,0-4,1.69-4,4.88v7.57h-2.43V23c0-2.88-1.26-4.3-3.46-4.3-2.43,0-4,1.69-4,4.88v7.57h-2.42V16.48h2.32v2.19a5.26,5.26,0,0,1,4.63-2.33,4.88,4.88,0,0,1,4.66,2.71,5.87,5.87,0,0,1,5.16-2.71C287.2,16.34,289.43,18.39,289.43,22.71Z"/></g></g></svg>