<svg xmlns="http://www.w3.org/2000/svg" xmlns:xlink="http://www.w3.org/1999/xlink" width="244" height="53" viewBox="0 0 244 53">
  <defs>
    <clipPath id="clip-path">
      <rect id="Rectangle_1" data-name="Rectangle 1" width="244" height="53" transform="translate(0.234 -0.451)" fill="#fff" stroke="#707070" stroke-width="1"/>
    </clipPath>
    <linearGradient id="linear-gradient" x1="15.393" y1="0.401" x2="15.046" y2="0.638" gradientUnits="objectBoundingBox">
      <stop offset="0" stop-opacity="0.4"/>
      <stop offset="1" stop-color="#424242" stop-opacity="0"/>
    </linearGradient>
    <linearGradient id="linear-gradient-2" x1="7.05" y1="0.401" x2="6.702" y2="0.638" xlink:href="#linear-gradient"/>
    <linearGradient id="linear-gradient-3" x1="0.019" y1="0.738" x2="0.354" y2="0.396" xlink:href="#linear-gradient"/>
  </defs>
  <g id="Mask_Group_1" data-name="Mask Group 1" transform="translate(-0.234 0.451)" clip-path="url(#clip-path)">
    <g id="Layer_2" data-name="Layer 2" transform="translate(-0.162 5.981)">
      <g id="Layer_1" data-name="Layer 1">
        <path id="Path_1" data-name="Path 1" d="M54.966,29.659c-.186-3.545-.4-7.1-.626-10.617s-.491-6.928-.787-10.2S52.944,2.639,52.6,0L46.32,13.341q.533,6.962.787,13.73c.059,1.337.1,2.648.152,3.942.169,4.83,3.79,8.646,8.2,8.646Q55.27,34.98,54.966,29.659Z" transform="translate(-14.817)" fill="#20f220"/>
        <path id="Path_2" data-name="Path 2" d="M39.141,0,32.864,13.341c-.618,1.6-1.328,3.384-2.1,5.321s-1.489,3.9-2.276,5.871-1.472,3.8-2.166,5.575-1.277,3.274-1.785,4.577H18.855l-1.785-4.56c-.7-1.776-1.43-3.629-2.174-5.575S13.39,20.65,12.62,18.7s-1.472-3.722-2.1-5.321L4.254,0H7.435A7.461,7.461,0,0,1,14.2,4.61v.051c.846,1.853,1.692,3.866,2.538,6.023s1.776,4.365,2.648,6.607,1.692,4.365,2.462,6.353q1.159-2.978,2.47-6.353c.846-2.242,1.751-4.45,2.639-6.607S28.71,6.514,29.5,4.661V4.61A7.512,7.512,0,0,1,36.265,0Z" transform="translate(-1.361)" fill="#3154ff"/>
        <path id="Path_3" data-name="Path 3" d="M46.32,13.341h7.614c-.118-1.531-.245-3.029-.381-4.5Q53.121,3.959,52.6,0Z" transform="translate(-14.817)" fill="url(#linear-gradient)"/>
        <path id="Path_4" data-name="Path 4" d="M0,39.675c4.416,0,8.028-3.815,8.2-8.646.051-1.294.1-2.606.161-3.942q.254-6.827.778-13.747L2.868,0c-.33,2.639-.677,5.583-.964,8.84s-.558,6.666-.787,10.2S.685,26.115.491,29.659.135,36.545,0,39.675Z" fill="#20f220"/>
        <path id="Path_5" data-name="Path 5" d="M9.852,13.341H2.239c.118-1.531.254-3.029.381-4.5.288-3.257.634-6.2.964-8.84Z" transform="translate(-0.716)" fill="url(#linear-gradient-2)"/>
        <path id="Path_6" data-name="Path 6" d="M30.163,33.718l2.656,11,5.16-13.222Z" transform="translate(-9.648 -10.074)" fill="url(#linear-gradient-3)"/>
        <path id="Path_7" data-name="Path 7" d="M96.226,14.627l-6.565,16.42H87.538l-6.59-16.42h2.309l5.4,13.484,5.431-13.484Z" transform="translate(-25.894 -4.679)" fill="#00ff67"/>
        <path id="Path_8" data-name="Path 8" d="M106.185,14.143a1.421,1.421,0,0,1,1.379-1.48,1.4,1.4,0,0,1,1.4,1.43,1.421,1.421,0,0,1-1.4,1.506,1.4,1.4,0,0,1-1.379-1.455Zm.364,3.849H108.6V30.419h-2.056Z" transform="translate(-33.966 -4.05)" fill="#00ff67"/>
        <path id="Path_9" data-name="Path 9" d="M114.307,31.542l.846-1.785a6.827,6.827,0,0,0,3.984,1.26c1.912,0,2.7-.634,2.7-1.692,0-2.792-7.165-.372-7.165-5.321,0-2.233,1.819-3.731,4.729-3.731a7.7,7.7,0,0,1,4.128,1.125l-.846,1.776a5.575,5.575,0,0,0-3.274-.981c-1.793,0-2.673.728-2.673,1.692,0,2.935,7.191.541,7.191,5.372,0,2.259-1.886,3.688-4.9,3.688a7.664,7.664,0,0,1-4.72-1.4Z" transform="translate(-36.564 -6.485)" fill="#00ff67"/>
        <path id="Path_10" data-name="Path 10" d="M132.554,14.143a1.421,1.421,0,0,1,1.387-1.48,1.4,1.4,0,0,1,1.4,1.43,1.413,1.413,0,0,1-1.4,1.506,1.4,1.4,0,0,1-1.387-1.455Zm.364,3.849h2.056V30.419h-2.056Z" transform="translate(-42.401 -4.05)" fill="#00ff67"/>
        <path id="Path_11" data-name="Path 11" d="M148.393,30.917a3.663,3.663,0,0,1-2.479.846c-2.293,0-3.6-1.387-3.6-3.9V21.07H140.39V19.217h1.929V16.493h2.047v2.724h3.257V21.07h-3.257v6.768c0,1.337.643,2.09,1.777,2.09a2.453,2.453,0,0,0,1.607-.584Z" transform="translate(-44.908 -5.276)" fill="#00ff67"/>
        <path id="Path_12" data-name="Path 12" d="M175.553,25.709v7.157H173.5V25.955c0-2.436-1.066-3.638-2.927-3.638-2.056,0-3.384,1.43-3.384,4.128v6.4h-2.047V25.955c0-2.436-1.074-3.638-2.935-3.638-2.056,0-3.384,1.43-3.384,4.128v6.4h-2.1V20.439h1.971v1.853a4.441,4.441,0,0,1,3.951-1.971,4.111,4.111,0,0,1,3.934,2.293,4.966,4.966,0,0,1,4.365-2.293C173.641,20.321,175.553,22.055,175.553,25.709Z" transform="translate(-50.132 -6.498)" fill="#00ff67"/>
        <path id="Path_13" data-name="Path 13" d="M199.472,25.365v7.5h-1.946V31.227a4.086,4.086,0,0,1-3.731,1.785c-2.538,0-4.187-1.506-4.187-3.663,0-2,1.176-3.638,4.551-3.638h3.257v-.44a2.707,2.707,0,0,0-3.037-3,5.406,5.406,0,0,0-3.6,1.337l-.846-1.692a7.089,7.089,0,0,1,4.687-1.59C197.7,20.323,199.472,21.964,199.472,25.365Zm-2.056,3.705V27.336h-3.164c-2.039,0-2.614.846-2.614,1.92,0,1.244.939,2.013,2.538,2.013A3.282,3.282,0,0,0,197.417,29.07Z" transform="translate(-60.652 -6.5)" fill="#00ff67"/>
        <path id="Path_14" data-name="Path 14" d="M210.617,13.185h2.056v17.4h-2.056Z" transform="translate(-67.372 -4.217)" fill="#00ff67"/>
        <path id="Path_15" data-name="Path 15" d="M228.873,25.364v7.5h-1.946V31.227a4.077,4.077,0,0,1-3.722,1.785c-2.538,0-4.23-1.506-4.23-3.663,0-2,1.176-3.638,4.56-3.638h3.248v-.44a2.7,2.7,0,0,0-3.037-3,5.439,5.439,0,0,0-3.6,1.337l-.846-1.692a7.106,7.106,0,0,1,4.7-1.59C227.122,20.323,228.873,21.964,228.873,25.364Zm-2.056,3.705V27.335h-3.164c-2.03,0-2.614.846-2.614,1.92,0,1.244.947,2.013,2.538,2.013a3.265,3.265,0,0,0,3.24-2.2Z" transform="translate(-70.045 -6.5)" fill="#00ff67"/>
        <path id="Path_16" data-name="Path 16" d="M250.81,25.71v7.157h-2.047V25.955c0-2.436-1.117-3.638-3.062-3.638-2.183,0-3.6,1.43-3.6,4.128v6.4h-2.047V20.439h1.971v1.87a4.7,4.7,0,0,1,4.086-1.988C248.864,20.321,250.81,22.055,250.81,25.71Z" transform="translate(-76.789 -6.498)" fill="#00ff67"/>
        <path id="Path_17" data-name="Path 17" d="M272.836,20.441V31.176c0,4.39-2.03,6.378-5.879,6.378a7.859,7.859,0,0,1-5.414-1.853l.981-1.734a6.531,6.531,0,0,0,4.365,1.624c2.673,0,3.9-1.362,3.9-4.179v-.981a5.016,5.016,0,0,1-4.094,1.92,5.681,5.681,0,0,1-5.753-6.032,5.652,5.652,0,0,1,5.752-6,4.991,4.991,0,0,1,4.23,2.039v-1.92Zm-2,5.922a3.908,3.908,0,1,0-3.908,3.908A3.908,3.908,0,0,0,270.831,26.362Z" transform="translate(-83.47 -6.499)" fill="#00ff67"/>
        <path id="Path_18" data-name="Path 18" d="M283.69,35.845a1.5,1.5,0,0,1,1.455-1.59,1.48,1.48,0,0,1,1.413,1.59,1.44,1.44,0,1,1-2.868,0Z" transform="translate(-90.745 -10.957)" fill="#00ff67"/>
        <path id="Path_19" data-name="Path 19" d="M291.241,26.649c0-3.705,2.538-6.328,5.989-6.328a4.957,4.957,0,0,1,4.627,2.648l-1.565,1.1a3.451,3.451,0,0,0-3.079-1.777c-2.225,0-3.9,1.692-3.9,4.357s1.692,4.39,3.9,4.39a3.46,3.46,0,0,0,3.079-1.785l1.565,1.083a4.983,4.983,0,0,1-4.627,2.673C293.745,33.011,291.241,30.354,291.241,26.649Z" transform="translate(-93.162 -6.499)" fill="#00ff67"/>
        <path id="Path_20" data-name="Path 20" d="M309.874,26.652c0-3.705,2.538-6.328,5.922-6.328s5.922,2.622,5.922,6.328-2.487,6.362-5.922,6.362S309.874,30.357,309.874,26.652Zm9.712,0c0-2.648-1.624-4.357-3.807-4.357s-3.832,1.692-3.832,4.357,1.65,4.382,3.832,4.382S319.585,29.342,319.585,26.652Z" transform="translate(-99.122 -6.501)" fill="#00ff67"/>
        <path id="Path_21" data-name="Path 21" d="M351.163,25.709v7.157h-2.056V25.955c0-2.436-1.066-3.638-2.935-3.638-2.047,0-3.384,1.43-3.384,4.128v6.4h-2.056V25.955c0-2.436-1.066-3.638-2.927-3.638-2.056,0-3.384,1.43-3.384,4.128v6.4h-2.047V20.439h1.963v1.853a4.45,4.45,0,0,1,3.917-1.971,4.128,4.128,0,0,1,3.942,2.293,4.966,4.966,0,0,1,4.365-2.293C349.277,20.321,351.163,22.055,351.163,25.709Z" transform="translate(-106.319 -6.498)" fill="#00ff67"/>
      </g>
    </g>
  </g>
</svg>
